<svg width="25" height="25" viewBox="0 0 25 25" fill="none" xmlns="http://www.w3.org/2000/svg">
<path d="M3.57139 9.82134V19.6428M9.52318 9.82134V19.6428M15.4768 9.82134V19.6428M21.4285 9.82134V19.6428M23.0535 9.82134H1.94639C0.946394 9.82134 0.517822 8.73205 1.30354 8.2142L11.8571 1.30348C12.052 1.18886 12.2739 1.12842 12.5 1.12842C12.726 1.12842 12.948 1.18886 13.1428 1.30348L23.6964 8.2142C24.4821 8.73205 24.0535 9.82134 23.0535 9.82134ZM23.2143 19.6428H1.78568C1.54888 19.6428 1.32178 19.7368 1.15433 19.9043C0.986891 20.0717 0.892822 20.2988 0.892822 20.5356V23.2142C0.892822 23.451 0.986891 23.6781 1.15433 23.8455C1.32178 24.013 1.54888 24.1071 1.78568 24.1071H23.2143C23.4511 24.1071 23.6782 24.013 23.8456 23.8455C24.013 23.6781 24.1071 23.451 24.1071 23.2142V20.5356C24.1071 20.2988 24.013 20.0717 23.8456 19.9043C23.6782 19.7368 23.4511 19.6428 23.2143 19.6428Z" stroke="#022C66" stroke-width="2" stroke-linecap="round" stroke-linejoin="round"/>
</svg>
