<svg width="20" height="20" viewBox="0 0 20 20" fill="none" xmlns="http://www.w3.org/2000/svg">
<path d="M4.99998 2.5C4.53974 2.5 4.16665 2.8731 4.16665 3.33333V16.6667C4.16665 17.1269 4.53974 17.5 4.99998 17.5C5.46022 17.5 5.83331 17.1269 5.83331 16.6667V3.33333C5.83331 2.8731 5.46022 2.5 4.99998 2.5Z" fill="#022C66"/>
<path d="M9.99998 7.5C9.53974 7.5 9.16665 7.8731 9.16665 8.33333V16.6667C9.16665 17.1269 9.53974 17.5 9.99998 17.5C10.4602 17.5 10.8333 17.1269 10.8333 16.6667V8.33333C10.8333 7.8731 10.4602 7.5 9.99998 7.5Z" fill="#022C66"/>
<path d="M14.1666 13.3333C14.1666 12.8731 14.5397 12.5 15 12.5C15.4602 12.5 15.8333 12.8731 15.8333 13.3333V16.6667C15.8333 17.1269 15.4602 17.5 15 17.5C14.5397 17.5 14.1666 17.1269 14.1666 16.6667V13.3333Z" fill="#022C66"/>
</svg>
