<svg width="27" height="21" viewBox="0 0 27 21" fill="none" xmlns="http://www.w3.org/2000/svg">
<path fill-rule="evenodd" clip-rule="evenodd" d="M0 3.75C0 1.88604 1.51104 0.375 3.375 0.375H23.625C25.489 0.375 27 1.88604 27 3.75V17.25C27 19.114 25.489 20.625 23.625 20.625H3.375C1.51104 20.625 0 19.114 0 17.25V3.75ZM2.25 3.75C2.25 3.12868 2.75368 2.625 3.375 2.625H23.625C24.2463 2.625 24.75 3.12868 24.75 3.75V7.125H2.25V3.75ZM24.75 9.375V17.25C24.75 17.8713 24.2463 18.375 23.625 18.375H3.375C2.75368 18.375 2.25 17.8713 2.25 17.25V9.375H24.75Z" fill="#022C66"/>
</svg>
