<svg width="20" height="20" viewBox="0 0 20 20" fill="none" xmlns="http://www.w3.org/2000/svg">
<g clip-path="url(#clip0_888_6334)">
<path d="M10.8333 4.99998C10.8333 4.53974 10.4602 4.16665 9.99998 4.16665C9.53974 4.16665 9.16665 4.53974 9.16665 4.99998V9.99998C9.16665 10.3156 9.34498 10.6042 9.6273 10.7453L12.9606 12.412C13.3723 12.6178 13.8728 12.451 14.0787 12.0393C14.2845 11.6277 14.1176 11.1271 13.706 10.9213L10.8333 9.48495V4.99998Z" fill="#022C66"/>
<path fill-rule="evenodd" clip-rule="evenodd" d="M9.99998 0.833313C4.93737 0.833313 0.833313 4.93737 0.833313 9.99998C0.833313 15.0626 4.93737 19.1666 9.99998 19.1666C15.0626 19.1666 19.1666 15.0626 19.1666 9.99998C19.1666 4.93737 15.0626 0.833313 9.99998 0.833313ZM2.49998 9.99998C2.49998 5.85784 5.85784 2.49998 9.99998 2.49998C14.1421 2.49998 17.5 5.85784 17.5 9.99998C17.5 14.1421 14.1421 17.5 9.99998 17.5C5.85784 17.5 2.49998 14.1421 2.49998 9.99998Z" fill="#022C66"/>
</g>
<defs>
<clipPath id="clip0_888_6334">
<rect width="20" height="20" fill="white"/>
</clipPath>
</defs>
</svg>
