<svg width="69" height="69" viewBox="0 0 69 69" fill="none" xmlns="http://www.w3.org/2000/svg">
<path d="M46.0847 22.9153C47.3051 24.1357 47.3051 26.1143 46.0847 27.3347L38.9194 34.5L46.0847 41.6653C47.3051 42.8857 47.3051 44.8643 46.0847 46.0847C44.8643 47.3051 42.8857 47.3051 41.6653 46.0847L34.5 38.9194L27.3347 46.0847C26.1143 47.3051 24.1357 47.3051 22.9153 46.0847C21.6949 44.8643 21.6949 42.8857 22.9153 41.6653L30.0806 34.5L22.9153 27.3347C21.6949 26.1143 21.6949 24.1357 22.9153 22.9153C24.1357 21.6949 26.1143 21.6949 27.3347 22.9153L34.5 30.0806L41.6653 22.9153C42.8857 21.6949 44.8643 21.6949 46.0847 22.9153Z" fill="#ED4337"/>
<path fill-rule="evenodd" clip-rule="evenodd" d="M0.125 34.5C0.125 15.5152 15.5152 0.125 34.5 0.125C53.4848 0.125 68.875 15.5152 68.875 34.5C68.875 53.4848 53.4848 68.875 34.5 68.875C15.5152 68.875 0.125 53.4848 0.125 34.5ZM34.5 6.375C18.967 6.375 6.375 18.967 6.375 34.5C6.375 50.033 18.967 62.625 34.5 62.625C50.033 62.625 62.625 50.033 62.625 34.5C62.625 18.967 50.033 6.375 34.5 6.375Z" fill="#ED4337"/>
</svg>
