<svg width="21" height="19" viewBox="0 0 21 19" fill="none" xmlns="http://www.w3.org/2000/svg">
<path fill-rule="evenodd" clip-rule="evenodd" d="M0.956284 1.25673C1.09966 0.947714 1.40935 0.75 1.75001 0.75H19.25C19.5907 0.75 19.9004 0.947714 20.0437 1.25673C20.1871 1.56575 20.1381 1.92989 19.9181 2.19001L13.125 10.2229V17.375C13.125 17.6783 12.968 17.9599 12.71 18.1193C12.4521 18.2788 12.1299 18.2932 11.8587 18.1576L8.3587 16.4076C8.06226 16.2594 7.87501 15.9564 7.87501 15.625V10.2229L1.08189 2.19001C0.861915 1.92989 0.812908 1.56575 0.956284 1.25673ZM3.6359 2.5L9.41814 9.33749C9.55172 9.49545 9.62501 9.69563 9.62501 9.9025V15.0842L11.375 15.9592V9.9025C11.375 9.69563 11.4483 9.49545 11.5819 9.33749L17.3641 2.5H3.6359Z" fill="#022C66"/>
</svg>
