<svg width="27" height="23" viewBox="0 0 27 23" xmlns="http://www.w3.org/2000/svg">
  <path d="M0 1.83425C0 0.96637 0.604416 0.262817 1.35 0.262817H25.65C26.3956 0.262817 27 0.96637 27 1.83425C27 2.70212 26.3956 3.40567 25.65 3.40567H1.35C0.604416 3.40567 0 2.70212 0 1.83425Z" fill="#FFFF"/>
  <path d="M0 11.2628C0 10.3949 0.604416 9.69139 1.35 9.69139H25.65C26.3956 9.69139 27 10.3949 27 11.2628C27 12.1307 26.3956 12.8342 25.65 12.8342H1.35C0.604416 12.8342 0 12.1307 0 11.2628Z" fill="#FFFF"/>
  <path d="M1.35 19.12C0.604416 19.12 0 19.8235 0 20.6914C0 21.5593 0.604416 22.2628 1.35 22.2628H25.65C26.3956 22.2628 27 21.5593 27 20.6914C27 19.8235 26.3956 19.12 25.65 19.12H1.35Z" fill="#FFFF"/>
</svg>
