<svg width="17" height="79" viewBox="0 0 17 79" fill="none" xmlns="http://www.w3.org/2000/svg">
<path fill-rule="evenodd" clip-rule="evenodd" d="M7.00006 63.1432L7.00006 15.5491C3.38429 14.8491 0.653952 11.6665 0.653952 7.84615C0.653952 3.51284 4.16679 -5.32381e-07 8.5001 -3.42966e-07C12.8334 -1.53551e-07 16.3462 3.51284 16.3462 7.84615C16.3462 11.6665 13.6159 14.8491 10.0001 15.5491L10.0001 63.1432C13.6159 63.8432 16.3462 67.0258 16.3462 70.8461C16.3462 75.1795 12.8334 78.6923 8.5001 78.6923C4.1668 78.6923 0.653956 75.1795 0.653956 70.8461C0.653956 67.0258 3.38429 63.8432 7.00006 63.1432ZM8.5001 64.4266C12.0455 64.4266 14.9197 67.3007 14.9197 70.8461C14.9197 74.3916 12.0455 77.2657 8.5001 77.2657C4.95467 77.2657 2.08053 74.3916 2.08053 70.8461C2.08053 67.3007 4.95467 64.4266 8.5001 64.4266ZM11.3532 70.8461C11.3532 69.2704 10.0759 67.993 8.5001 67.993C6.92436 67.993 5.64696 69.2704 5.64696 70.8461C5.64696 72.4219 6.92436 73.6993 8.5001 73.6993C10.0759 73.6993 11.3532 72.4219 11.3532 70.8461ZM8.5001 69.4196C9.28798 69.4196 9.92668 70.0583 9.92668 70.8461C9.92668 71.634 9.28798 72.2727 8.5001 72.2727C7.71223 72.2727 7.07353 71.634 7.07353 70.8461C7.07353 70.0583 7.71223 69.4196 8.5001 69.4196ZM8.5001 1.42657C12.0455 1.42657 14.9197 4.30071 14.9197 7.84615C14.9197 11.3916 12.0455 14.2657 8.5001 14.2657C4.95467 14.2657 2.08052 11.3916 2.08053 7.84615C2.08053 4.30071 4.95467 1.42657 8.5001 1.42657ZM11.3532 7.84615C11.3532 6.2704 10.0758 4.993 8.5001 4.993C6.92435 4.993 5.64696 6.2704 5.64696 7.84615C5.64696 9.42189 6.92435 10.6993 8.5001 10.6993C10.0758 10.6993 11.3532 9.42189 11.3532 7.84615ZM8.5001 6.41957C9.28797 6.41957 9.92667 7.05827 9.92667 7.84615C9.92667 8.63402 9.28797 9.27272 8.5001 9.27272C7.71222 9.27272 7.07353 8.63402 7.07353 7.84615C7.07353 7.05827 7.71222 6.41957 8.5001 6.41957Z" fill="url(#paint0_linear_113_2111)"/>
<defs>
<linearGradient id="paint0_linear_113_2111" x1="8.50011" y1="0.653846" x2="9.00006" y2="78" gradientUnits="userSpaceOnUse">
<stop stop-color="#4AC777"/>
<stop offset="1" stop-color="#022C66"/>
</linearGradient>
</defs>
</svg>
