<svg width="195" height="18" viewBox="0 0 195 18" fill="none" xmlns="http://www.w3.org/2000/svg">
<path fill-rule="evenodd" clip-rule="evenodd" d="M8.77419 0C3.92834 0 0 3.92834 0 8.77419C0 13.62 3.92834 17.5484 8.77419 17.5484C13.204 17.5484 16.8671 14.2656 17.4634 10L177 10V8.77419C177 13.62 180.928 17.5484 185.774 17.5484C190.62 17.5484 194.548 13.62 194.548 8.77419C194.548 3.92834 190.62 0 185.774 0C180.928 0 177 3.92834 177 8.77419V7L17.3689 7C16.5485 3.00468 13.0122 0 8.77419 0ZM1.59531 8.77419C1.59531 4.8094 4.8094 1.59531 8.77419 1.59531C12.739 1.59531 15.9531 4.8094 15.9531 8.77419C15.9531 12.739 12.739 15.9531 8.77419 15.9531C4.8094 15.9531 1.59531 12.739 1.59531 8.77419ZM8.77419 5.58357C7.01206 5.58357 5.58357 7.01206 5.58357 8.77419C5.58357 10.5363 7.01206 11.9648 8.77419 11.9648C10.5363 11.9648 11.9648 10.5363 11.9648 8.77419C11.9648 7.01206 10.5363 5.58357 8.77419 5.58357ZM7.17888 8.77419C7.17888 7.89312 7.89312 7.17888 8.77419 7.17888C9.65525 7.17888 10.3695 7.89312 10.3695 8.77419C10.3695 9.65525 9.65525 10.3695 8.77419 10.3695C7.89312 10.3695 7.17888 9.65525 7.17888 8.77419ZM178.595 8.77419C178.595 4.8094 181.809 1.59531 185.774 1.59531C189.739 1.59531 192.953 4.8094 192.953 8.77419C192.953 12.739 189.739 15.9531 185.774 15.9531C181.809 15.9531 178.595 12.739 178.595 8.77419ZM185.774 5.58357C184.012 5.58357 182.584 7.01206 182.584 8.77419C182.584 10.5363 184.012 11.9648 185.774 11.9648C187.536 11.9648 188.965 10.5363 188.965 8.77419C188.965 7.01206 187.536 5.58357 185.774 5.58357ZM184.179 8.77419C184.179 7.89312 184.893 7.17888 185.774 7.17888C186.655 7.17888 187.369 7.89312 187.369 8.77419C187.369 9.65525 186.655 10.3695 185.774 10.3695C184.893 10.3695 184.179 9.65525 184.179 8.77419Z" fill="url(#paint0_linear_138_1650)"/>
<defs>
<linearGradient id="paint0_linear_138_1650" x1="0.731183" y1="8.77418" x2="193.5" y2="8.77418" gradientUnits="userSpaceOnUse">
<stop stop-color="#4AC777"/>
<stop offset="1" stop-color="#022C66"/>
</linearGradient>
</defs>
</svg>
