<?xml version="1.0" encoding="UTF-8"?><svg id="Layer_2" xmlns="http://www.w3.org/2000/svg" viewBox="0 0 1039.14 177.08"><defs><style>.cls-1{fill:#022c66;}.cls-1,.cls-2{stroke-width:0px;}.cls-2{fill:#fff;}</style></defs><g id="Layer_1-2"><path class="cls-2" d="M496.13,121.54c-2.97-8.11-6.63-12.48-14.42-17.48-3.88-2.49-7.31-4.37-10.29-5.82-5.26-2.08-18.76-8.11-23.34-10.19-2.98-1.46-4.35-3.54-4.35-6.66,0-4.16,3.67-7.7,8.24-7.7,4.34,0,7.78,3.12,8.46,7.08l30.89-9.57c-5.26-15.81-20.82-26.84-39.35-26.84-11.22,0-20.83,3.54-28.83,10.82-8.01,7.27-11.9,16.01-11.9,26.2s5.72,19.56,13.96,25.18c4.12,2.91,8.24,5.41,12.36,7.27,8.24,3.95,18.53,7.91,21.96,10.2,4.35,2.91,6.42,6.44,6.42,10.81,0,6.86-5.95,12.69-13.96,12.69-7.55,0-13.73-5.62-13.96-12.48l-31.12,9.78c2.51,9.36,8.01,17.06,16.47,23.09,8.24,6.03,17.85,9.15,28.61,9.15,12.81,0,23.79-4.16,32.94-12.48,8.93-8.11,13.49-18.1,13.49-29.74,0-4.78-.68-9.36-2.28-13.31Z"/><path class="cls-2" d="M604.62,60.59c-10.82-10.82-23.72-16.23-38.9-16.23-9.36,0-17.89,2.09-25.79,6.45V.05h-29.54v177.03h29.54v-77.38c0-7.07,2.49-13.11,7.69-18.31,4.99-4.99,11.03-7.48,18.1-7.48s12.9,2.49,18.1,7.48c5.2,5.2,7.7,11.24,7.7,18.31v77.38h29.33v-77.38c0-15.18-5.41-28.08-16.22-39.1Z"/><path class="cls-2" d="M748.79,63.7c-13.11-12.89-28.71-19.34-47.02-19.34s-33.9,6.45-46.8,19.34c-13.1,13.11-19.55,28.71-19.55,47.02s6.45,33.9,19.55,46.8c12.9,13.11,28.51,19.55,46.8,19.55,13.31,0,25.59-3.75,36.83-11.23v11.23h29.53v-66.35c0-18.31-6.44-33.91-19.34-47.02ZM727.77,136.72c-7.28,7.28-15.8,10.82-26.01,10.82s-18.72-3.54-26-10.82c-7.28-7.27-10.81-15.81-10.81-26s3.53-18.94,10.81-26.21c7.27-7.28,15.8-10.82,26-10.82s18.72,3.54,26.01,10.82c7.28,7.27,10.82,16.01,10.82,26.21s-3.54,18.72-10.82,26Z"/><path class="cls-2" d="M829.09,44.36c-12.28,0-22.67,4.37-31.2,12.9-8.74,8.53-13.11,18.93-13.11,31.2v88.61h29.54v-88.61c0-8.11,6.65-14.78,14.77-14.78h13.73l8.95-29.33h-22.67Z"/><path class="cls-2" d="M987.6,110.72c0-18.31-6.44-33.91-19.34-47.02-12.9-12.89-28.5-19.34-46.8-19.34s-34.12,6.45-47.01,19.34c-12.9,13.11-19.34,28.71-19.34,47.02s6.44,33.9,19.34,46.8c12.89,13.11,28.5,19.55,47.01,19.55s35.78-7.27,48.89-21.84l-24.76-16.84c-7.07,6.03-15.18,9.15-24.13,9.15-14.77,0-28.08-8.74-33.7-21.84h98.18c1.04-4.37,1.66-9.36,1.66-14.97ZM887.34,96.16c5.83-13.31,18.93-22.48,34.12-22.48s28.08,9.16,33.9,22.48h-68.02Z"/><path class="cls-2" d="M1020.14,42.82c2.99-1.18,4.81-4.17,4.81-7.42,0-4.55-3.65-8.19-8.2-8.19h-9.37v26.03h4.3v-9.63h3.9l4.94,9.63h4.81l-5.2-10.41ZM1016.75,39.17h-5.07v-7.68h5.07c2.09,0,3.9,1.7,3.9,3.9,0,2.09-1.82,3.78-3.9,3.78ZM1020.14,42.82c2.99-1.18,4.81-4.17,4.81-7.42,0-4.55-3.65-8.19-8.2-8.19h-9.37v26.03h4.3v-9.63h3.9l4.94,9.63h4.81l-5.2-10.41ZM1016.75,39.17h-5.07v-7.68h5.07c2.09,0,3.9,1.7,3.9,3.9,0,2.09-1.82,3.78-3.9,3.78ZM1032.11,23.3c-4.68-4.69-10.28-7.03-16.92-7.03s-12.23,2.34-16.91,6.9c-4.68,4.69-7.03,10.41-7.03,17.05s2.34,12.23,7.03,16.91c4.69,4.69,10.28,7.03,16.91,7.03s12.24-2.34,16.92-7.03c4.69-4.69,7.03-10.28,7.03-16.91s-2.34-12.24-7.03-16.92ZM1027.17,52.19c-3.25,3.25-7.29,4.94-11.98,4.94s-8.72-1.69-11.97-4.94c-3.38-3.25-5.07-7.28-5.07-11.97s1.69-8.73,5.07-12.11c3.25-3.25,7.28-4.94,11.97-4.94s8.73,1.69,11.98,4.94c3.25,3.38,4.94,7.42,4.94,12.11s-1.69,8.72-4.94,11.97ZM1024.96,35.39c0-4.55-3.65-8.19-8.2-8.19h-9.37v26.03h4.3v-9.63h3.9l4.94,9.63h4.81l-5.2-10.41c2.99-1.18,4.81-4.17,4.81-7.42ZM1016.75,39.17h-5.07v-7.68h5.07c2.09,0,3.9,1.7,3.9,3.9,0,2.09-1.82,3.78-3.9,3.78Z"/><path class="cls-1" d="M44.3,44.36c-12.27,0-22.67,4.37-31.2,12.9C4.37,65.79,0,76.19,0,88.46v88.61h29.53v-88.61c0-8.11,6.65-14.78,14.77-14.78h13.73l8.95-29.33h-22.68Z"/><path class="cls-1" d="M78.63,44.36v132.72h29.53V44.36h-29.53Z"/><path class="cls-1" d="M224.45.05v55.55c-11.24-7.49-23.5-11.24-36.82-11.24-18.31,0-33.91,6.45-46.8,19.34-13.11,13.11-19.55,28.71-19.55,47.02s6.44,33.9,19.55,46.8c12.89,13.11,28.5,19.55,46.8,19.55s33.9-6.44,47.01-19.55c12.9-12.9,19.35-28.5,19.35-46.8V.05h-29.54ZM213.85,136.72c-7.28,7.28-16.02,10.82-26.21,10.82s-18.93-3.54-26.01-10.82c-7.27-7.27-10.81-15.81-10.81-26s3.54-18.72,10.81-26.01c7.08-7.28,15.81-10.81,26.01-10.81s18.93,3.53,26.21,10.81c7.07,7.28,10.61,15.81,10.61,26.01s-3.54,18.72-10.61,26Z"/><path class="cls-1" d="M400.24,110.72c0-18.31-6.44-33.91-19.34-47.02-12.9-12.89-28.5-19.34-46.8-19.34s-34.12,6.45-47.01,19.34c-12.9,13.11-19.35,28.71-19.35,47.02s6.45,33.9,19.35,46.8c12.89,13.11,28.5,19.55,47.01,19.55s35.78-7.27,48.88-21.84l-24.75-16.84c-7.08,6.03-15.18,9.15-24.13,9.15-14.77,0-28.08-8.74-33.71-21.84h98.19c1.04-4.37,1.66-9.36,1.66-14.97ZM299.97,96.16c5.82-13.31,18.93-22.48,34.12-22.48s28.08,9.16,33.9,22.48h-68.02Z"/><path class="cls-2" d="M44.3,44.36c-12.27,0-22.67,4.37-31.2,12.9C4.37,65.79,0,76.19,0,88.46v88.61h29.53v-88.61c0-8.11,6.65-14.78,14.77-14.78h13.73l8.95-29.33h-22.68Z"/><path class="cls-2" d="M44.3,44.36c-12.27,0-22.67,4.37-31.2,12.9C4.37,65.79,0,76.19,0,88.46v88.61h29.53v-88.61c0-8.11,6.65-14.78,14.77-14.78h13.73l8.95-29.33h-22.68Z"/><path class="cls-2" d="M78.63,44.36v132.72h29.53V44.36h-29.53Z"/><path class="cls-2" d="M78.63,44.36v132.72h29.53V44.36h-29.53Z"/><path class="cls-2" d="M224.45.05v55.55c-11.24-7.49-23.5-11.24-36.82-11.24-18.31,0-33.91,6.45-46.8,19.34-13.11,13.11-19.55,28.71-19.55,47.02s6.44,33.9,19.55,46.8c12.89,13.11,28.5,19.55,46.8,19.55s33.9-6.44,47.01-19.55c12.9-12.9,19.35-28.5,19.35-46.8V.05h-29.54ZM213.85,136.72c-7.28,7.28-16.02,10.82-26.21,10.82s-18.93-3.54-26.01-10.82c-7.27-7.27-10.81-15.81-10.81-26s3.54-18.72,10.81-26.01c7.08-7.28,15.81-10.81,26.01-10.81s18.93,3.53,26.21,10.81c7.07,7.28,10.61,15.81,10.61,26.01s-3.54,18.72-10.61,26Z"/><path class="cls-2" d="M224.45.05v55.55c-11.24-7.49-23.5-11.24-36.82-11.24-18.31,0-33.91,6.45-46.8,19.34-13.11,13.11-19.55,28.71-19.55,47.02s6.44,33.9,19.55,46.8c12.89,13.11,28.5,19.55,46.8,19.55s33.9-6.44,47.01-19.55c12.9-12.9,19.35-28.5,19.35-46.8V.05h-29.54ZM213.85,136.72c-7.28,7.28-16.02,10.82-26.21,10.82s-18.93-3.54-26.01-10.82c-7.27-7.27-10.81-15.81-10.81-26s3.54-18.72,10.81-26.01c7.08-7.28,15.81-10.81,26.01-10.81s18.93,3.53,26.21,10.81c7.07,7.28,10.61,15.81,10.61,26.01s-3.54,18.72-10.61,26Z"/><path class="cls-2" d="M400.24,110.72c0-18.31-6.44-33.91-19.34-47.02-12.9-12.89-28.5-19.34-46.8-19.34s-34.12,6.45-47.01,19.34c-12.9,13.11-19.35,28.71-19.35,47.02s6.45,33.9,19.35,46.8c12.89,13.11,28.5,19.55,47.01,19.55s35.78-7.27,48.88-21.84l-24.75-16.84c-7.08,6.03-15.18,9.15-24.13,9.15-14.77,0-28.08-8.74-33.71-21.84h98.19c1.04-4.37,1.66-9.36,1.66-14.97ZM299.97,96.16c5.82-13.31,18.93-22.48,34.12-22.48s28.08,9.16,33.9,22.48h-68.02Z"/><path class="cls-2" d="M400.24,110.72c0-18.31-6.44-33.91-19.34-47.02-12.9-12.89-28.5-19.34-46.8-19.34s-34.12,6.45-47.01,19.34c-12.9,13.11-19.35,28.71-19.35,47.02s6.45,33.9,19.35,46.8c12.89,13.11,28.5,19.55,47.01,19.55s35.78-7.27,48.88-21.84l-24.75-16.84c-7.08,6.03-15.18,9.15-24.13,9.15-14.77,0-28.08-8.74-33.71-21.84h98.19c1.04-4.37,1.66-9.36,1.66-14.97ZM299.97,96.16c5.82-13.31,18.93-22.48,34.12-22.48s28.08,9.16,33.9,22.48h-68.02Z"/><circle class="cls-2" cx="93.4" cy="16.28" r="16.28"/></g></svg>