<?xml version="1.0" encoding="UTF-8"?><svg id="Layer_2" xmlns="http://www.w3.org/2000/svg" viewBox="0 0 1171.99 199.71"><defs><style>.cls-1{fill:#022c66;}.cls-1,.cls-2{stroke-width:0px;}.cls-2{fill:#38ef7d;}</style></defs><g id="Layer_1-2"><path class="cls-2" d="M559.56,137.07c-3.36-9.15-7.48-14.08-16.26-19.71-4.38-2.81-8.25-4.93-11.61-6.57-5.93-2.34-21.16-9.15-26.32-11.49-3.36-1.65-4.9-3.99-4.9-7.51,0-4.69,4.14-8.68,9.3-8.68,4.89,0,8.77,3.52,9.54,7.98l34.84-10.79c-5.93-17.84-23.48-30.27-44.38-30.27-12.65,0-23.49,3.99-32.52,12.21-9.03,8.2-13.42,18.06-13.42,29.55s6.45,22.06,15.74,28.39c4.65,3.28,9.3,6.1,13.93,8.2,9.3,4.46,20.9,8.92,24.77,11.5,4.91,3.28,7.24,7.27,7.24,12.2,0,7.74-6.71,14.31-15.74,14.31-8.52,0-15.48-6.34-15.74-14.08l-35.09,11.03c2.83,10.56,9.03,19.24,18.57,26.04,9.3,6.8,20.13,10.32,32.26,10.32,14.45,0,26.83-4.69,37.16-14.08,10.07-9.14,15.22-20.41,15.22-33.54,0-5.4-.77-10.56-2.58-15.02Z"/><path class="cls-2" d="M681.92,68.34c-12.21-12.21-26.76-18.3-43.88-18.3-10.56,0-20.18,2.35-29.09,7.28V.05h-33.32v199.66h33.32v-87.28c0-7.97,2.81-14.78,8.67-20.65,5.63-5.63,12.44-8.44,20.41-8.44s14.55,2.81,20.41,8.44c5.86,5.86,8.68,12.68,8.68,20.65v87.28h33.08v-87.28c0-17.12-6.1-31.67-18.29-44.1Z"/><path class="cls-2" d="M844.51,71.85c-14.78-14.54-32.39-21.82-53.03-21.82s-38.24,7.28-52.79,21.82c-14.77,14.78-22.05,32.38-22.05,53.03s7.28,38.24,22.05,52.79c14.55,14.78,32.15,22.05,52.79,22.05,15.02,0,28.86-4.23,41.54-12.66v12.66h33.31v-74.84c0-20.65-7.27-38.25-21.82-53.03ZM820.81,154.2c-8.22,8.22-17.83,12.21-29.33,12.21s-21.11-3.99-29.32-12.21c-8.22-8.21-12.2-17.83-12.2-29.32s3.98-21.36,12.2-29.56c8.2-8.22,17.83-12.21,29.32-12.21s21.11,3.99,29.33,12.21c8.22,8.21,12.21,18.06,12.21,29.56s-3.99,21.11-12.21,29.32Z"/><path class="cls-2" d="M935.08,50.03c-13.85,0-25.57,4.93-35.19,14.55-9.86,9.62-14.78,21.35-14.78,35.19v99.94h33.32v-99.94c0-9.15,7.5-16.67,16.65-16.67h15.48l10.09-33.08h-25.57Z"/><path class="cls-2" d="M1113.86,124.88c0-20.65-7.27-38.25-21.82-53.03-14.55-14.54-32.14-21.82-52.79-21.82s-38.48,7.28-53.02,21.82c-14.55,14.78-21.82,32.38-21.82,53.03s7.27,38.24,21.82,52.79c14.54,14.78,32.14,22.05,53.02,22.05s40.36-8.21,55.14-24.64l-27.93-19c-7.97,6.8-17.12,10.32-27.21,10.32-16.65,0-31.67-9.85-38-24.64h110.73c1.17-4.93,1.87-10.56,1.87-16.89ZM1000.77,108.46c6.58-15.02,21.35-25.35,38.48-25.35s31.67,10.33,38.24,25.35h-76.72Z"/><path class="cls-2" d="M1150.56,48.29c3.38-1.33,5.43-4.7,5.43-8.37,0-5.13-4.11-9.24-9.25-9.24h-10.57v29.35h4.85v-10.86h4.4l5.57,10.86h5.43l-5.86-11.74ZM1146.73,44.18h-5.72v-8.66h5.72c2.35,0,4.4,1.92,4.4,4.4,0,2.35-2.05,4.26-4.4,4.26ZM1150.56,48.29c3.38-1.33,5.43-4.7,5.43-8.37,0-5.13-4.11-9.24-9.25-9.24h-10.57v29.35h4.85v-10.86h4.4l5.57,10.86h5.43l-5.86-11.74ZM1146.73,44.18h-5.72v-8.66h5.72c2.35,0,4.4,1.92,4.4,4.4,0,2.35-2.05,4.26-4.4,4.26ZM1164.06,26.27c-5.28-5.28-11.59-7.93-19.09-7.93s-13.79,2.64-19.07,7.78c-5.28,5.28-7.93,11.74-7.93,19.23s2.64,13.79,7.93,19.07c5.28,5.28,11.59,7.93,19.07,7.93s13.8-2.64,19.09-7.93c5.28-5.28,7.93-11.59,7.93-19.07s-2.64-13.8-7.93-19.09ZM1158.48,58.86c-3.67,3.67-8.23,5.57-13.51,5.57s-9.83-1.91-13.5-5.57c-3.81-3.67-5.72-8.22-5.72-13.5s1.91-9.84,5.72-13.66c3.67-3.67,8.22-5.57,13.5-5.57s9.84,1.91,13.51,5.57c3.67,3.81,5.57,8.37,5.57,13.66s-1.91,9.83-5.57,13.5ZM1155.99,39.92c0-5.13-4.11-9.24-9.25-9.24h-10.57v29.35h4.85v-10.86h4.4l5.57,10.86h5.43l-5.86-11.74c3.38-1.33,5.43-4.7,5.43-8.37ZM1146.73,44.18h-5.72v-8.66h5.72c2.35,0,4.4,1.92,4.4,4.4,0,2.35-2.05,4.26-4.4,4.26Z"/><path class="cls-1" d="M49.96,50.03c-13.83,0-25.57,4.93-35.19,14.55C4.93,74.2,0,85.93,0,99.77v99.94h33.31v-99.94c0-9.15,7.5-16.67,16.65-16.67h15.48l10.09-33.08h-25.57Z"/><path class="cls-1" d="M88.68,50.03v149.68h33.31V50.03h-33.31Z"/><path class="cls-1" d="M253.15.05v62.65c-12.68-8.45-26.51-12.68-41.53-12.68-20.65,0-38.25,7.28-52.79,21.82s-22.05,32.38-22.05,53.03,7.27,38.24,22.05,52.79c14.54,14.78,32.14,22.05,52.79,22.05s38.24-7.27,53.02-22.05c14.55-14.55,21.83-32.14,21.83-52.79V.05h-33.32ZM241.19,154.2c-8.22,8.22-18.07,12.21-29.56,12.21s-21.35-3.99-29.33-12.21c-8.2-8.21-12.2-17.83-12.2-29.32s3.99-21.11,12.2-29.33c7.98-8.22,17.84-12.2,29.33-12.2s21.35,3.98,29.56,12.2c7.97,8.22,11.96,17.83,11.96,29.33s-3.99,21.11-11.96,29.32Z"/><path class="cls-1" d="M451.4,124.88c0-20.65-7.27-38.25-21.82-53.03-14.55-14.54-32.14-21.82-52.79-21.82s-38.48,7.28-53.02,21.82c-14.55,14.78-21.83,32.38-21.83,53.03s7.28,38.24,21.83,52.79c14.54,14.78,32.14,22.05,53.02,22.05s40.36-8.21,55.13-24.64l-27.91-19c-7.98,6.8-17.12,10.32-27.21,10.32-16.65,0-31.67-9.85-38.01-24.64h110.74c1.17-4.93,1.87-10.56,1.87-16.89ZM338.32,108.46c6.57-15.02,21.35-25.35,38.48-25.35s31.67,10.33,38.24,25.35h-76.72Z"/><path class="cls-1" d="M49.96,50.03c-13.83,0-25.57,4.93-35.19,14.55C4.93,74.2,0,85.93,0,99.77v99.94h33.31v-99.94c0-9.15,7.5-16.67,16.65-16.67h15.48l10.09-33.08h-25.57Z"/><path class="cls-1" d="M49.96,50.03c-13.83,0-25.57,4.93-35.19,14.55C4.93,74.2,0,85.93,0,99.77v99.94h33.31v-99.94c0-9.15,7.5-16.67,16.65-16.67h15.48l10.09-33.08h-25.57Z"/><path class="cls-1" d="M88.68,50.03v149.68h33.31V50.03h-33.31Z"/><path class="cls-1" d="M88.68,50.03v149.68h33.31V50.03h-33.31Z"/><path class="cls-1" d="M253.15.05v62.65c-12.68-8.45-26.51-12.68-41.53-12.68-20.65,0-38.25,7.28-52.79,21.82s-22.05,32.38-22.05,53.03,7.27,38.24,22.05,52.79c14.54,14.78,32.14,22.05,52.79,22.05s38.24-7.27,53.02-22.05c14.55-14.55,21.83-32.14,21.83-52.79V.05h-33.32ZM241.19,154.2c-8.22,8.22-18.07,12.21-29.56,12.21s-21.35-3.99-29.33-12.21c-8.2-8.21-12.2-17.83-12.2-29.32s3.99-21.11,12.2-29.33c7.98-8.22,17.84-12.2,29.33-12.2s21.35,3.98,29.56,12.2c7.97,8.22,11.96,17.83,11.96,29.33s-3.99,21.11-11.96,29.32Z"/><path class="cls-1" d="M253.15.05v62.65c-12.68-8.45-26.51-12.68-41.53-12.68-20.65,0-38.25,7.28-52.79,21.82s-22.05,32.38-22.05,53.03,7.27,38.24,22.05,52.79c14.54,14.78,32.14,22.05,52.79,22.05s38.24-7.27,53.02-22.05c14.55-14.55,21.83-32.14,21.83-52.79V.05h-33.32ZM241.19,154.2c-8.22,8.22-18.07,12.21-29.56,12.21s-21.35-3.99-29.33-12.21c-8.2-8.21-12.2-17.83-12.2-29.32s3.99-21.11,12.2-29.33c7.98-8.22,17.84-12.2,29.33-12.2s21.35,3.98,29.56,12.2c7.97,8.22,11.96,17.83,11.96,29.33s-3.99,21.11-11.96,29.32Z"/><path class="cls-1" d="M451.4,124.88c0-20.65-7.27-38.25-21.82-53.03-14.55-14.54-32.14-21.82-52.79-21.82s-38.48,7.28-53.02,21.82c-14.55,14.78-21.83,32.38-21.83,53.03s7.28,38.24,21.83,52.79c14.54,14.78,32.14,22.05,53.02,22.05s40.36-8.21,55.13-24.64l-27.91-19c-7.98,6.8-17.12,10.32-27.21,10.32-16.65,0-31.67-9.85-38.01-24.64h110.74c1.17-4.93,1.87-10.56,1.87-16.89ZM338.32,108.46c6.57-15.02,21.35-25.35,38.48-25.35s31.67,10.33,38.24,25.35h-76.72Z"/><path class="cls-1" d="M451.4,124.88c0-20.65-7.27-38.25-21.82-53.03-14.55-14.54-32.14-21.82-52.79-21.82s-38.48,7.28-53.02,21.82c-14.55,14.78-21.83,32.38-21.83,53.03s7.28,38.24,21.83,52.79c14.54,14.78,32.14,22.05,53.02,22.05s40.36-8.21,55.13-24.64l-27.91-19c-7.98,6.8-17.12,10.32-27.21,10.32-16.65,0-31.67-9.85-38.01-24.64h110.74c1.17-4.93,1.87-10.56,1.87-16.89ZM338.32,108.46c6.57-15.02,21.35-25.35,38.48-25.35s31.67,10.33,38.24,25.35h-76.72Z"/><circle class="cls-2" cx="105.34" cy="18.36" r="18.36"/></g></svg>