<svg width="22" height="22" viewBox="0 0 22 22" fill="none" xmlns="http://www.w3.org/2000/svg">
<path fill-rule="evenodd" clip-rule="evenodd" d="M3.41669 0.166748C2.55473 0.166748 1.72808 0.509158 1.11859 1.11865C0.509097 1.72814 0.166687 2.55479 0.166687 3.41675V20.7501C0.166687 21.1883 0.430633 21.5833 0.835447 21.751C1.24026 21.9186 1.70622 21.8259 2.01605 21.5161L6.03208 17.5001H18.5834C19.4453 17.5001 20.272 17.1577 20.8815 16.5482C21.4909 15.9387 21.8334 15.112 21.8334 14.2501V3.41675C21.8334 2.55479 21.4909 1.72814 20.8815 1.11865C20.272 0.509158 19.4453 0.166748 18.5834 0.166748H3.41669ZM2.65065 2.65072C2.85382 2.44755 3.12937 2.33341 3.41669 2.33341H18.5834C18.8707 2.33341 19.1462 2.44755 19.3494 2.65072C19.5526 2.85388 19.6667 3.12943 19.6667 3.41675V14.2501C19.6667 14.5374 19.5526 14.8129 19.3494 15.0161C19.1462 15.2193 18.8707 15.3334 18.5834 15.3334H5.58335C5.29604 15.3334 5.02049 15.4476 4.81732 15.6507L2.33335 18.1347V3.41675C2.33335 3.12943 2.44749 2.85388 2.65065 2.65072Z" fill="#4AC777"/>
</svg>
