<svg width="18" height="17" viewBox="0 0 18 17" fill="none" xmlns="http://www.w3.org/2000/svg">
<path d="M10.0416 1.20817C10.0416 0.632874 9.57526 0.166504 8.99996 0.166504C8.42466 0.166504 7.95829 0.632874 7.95829 1.20817V7.45817H1.70829C1.133 7.45817 0.666626 7.92454 0.666626 8.49984C0.666626 9.07513 1.133 9.5415 1.70829 9.5415H7.95829V15.7915C7.95829 16.3668 8.42466 16.8332 8.99996 16.8332C9.57526 16.8332 10.0416 16.3668 10.0416 15.7915V9.5415H16.2916C16.8669 9.5415 17.3333 9.07513 17.3333 8.49984C17.3333 7.92454 16.8669 7.45817 16.2916 7.45817H10.0416V1.20817Z" fill="#022C66"/>
</svg>
