<svg width="69" height="69" viewBox="0 0 69 69" fill="none" xmlns="http://www.w3.org/2000/svg">
<path d="M28.3018 7.04857C34.2176 5.71197 40.407 6.32348 45.9469 8.79191C47.5234 9.49435 49.3708 8.7858 50.0732 7.20932C50.7757 5.63284 50.0671 3.78542 48.4906 3.08298C41.7197 0.0660143 34.1549 -0.681392 26.9244 0.952233C19.6939 2.58586 13.1853 6.51299 8.36909 12.1479C3.5529 17.7829 0.687246 24.8237 0.199514 32.2203C-0.288218 39.617 1.6281 46.9731 5.66268 53.1916C9.69725 59.4102 15.6339 64.158 22.5872 66.7269C29.5406 69.2958 37.138 69.5481 44.2465 67.4464C51.355 65.3446 57.5937 61.0013 62.0321 55.0643C66.4705 49.1272 68.8708 41.9144 68.875 34.5017V31.6249C68.875 29.8991 67.4759 28.4999 65.75 28.4999C64.0241 28.4999 62.625 29.8991 62.625 31.6249V34.4982C62.6215 40.5631 60.6577 46.4644 57.0263 51.322C53.3949 56.1796 48.2905 59.7333 42.4744 61.4529C36.6584 63.1725 30.4423 62.966 24.7532 60.8642C19.0641 58.7623 14.2068 54.8778 10.9058 49.7899C7.60482 44.702 6.03692 38.6833 6.43597 32.6315C6.83502 26.5797 9.17965 20.8191 13.1202 16.2087C17.0607 11.5983 22.386 8.38517 28.3018 7.04857Z" fill="#4AC777"/>
<path d="M67.9608 11.7086C69.1806 10.4876 69.1796 8.50895 67.9586 7.28917C66.7376 6.0694 64.759 6.07038 63.5392 7.29138L34.4989 36.3607L27.3347 29.1965C26.1143 27.9761 24.1357 27.9761 22.9153 29.1965C21.6949 30.4169 21.6949 32.3956 22.9153 33.6159L32.2903 42.9909C32.8765 43.5772 33.6717 43.9064 34.5008 43.9062C35.3299 43.906 36.1249 43.5764 36.7108 42.9898L67.9608 11.7086Z" fill="#4AC777"/>
</svg>
