<svg width="43" height="44" viewBox="0 0 43 44" fill="none" xmlns="http://www.w3.org/2000/svg">
<path d="M28.4508 14.8947C29.1831 15.6432 29.1831 16.8568 28.4508 17.6053L24.1516 22L28.4508 26.3947C29.1831 27.1432 29.1831 28.3568 28.4508 29.1053C27.7186 29.8538 26.5314 29.8538 25.7992 29.1053L21.5 24.7106L17.2008 29.1053C16.4686 29.8538 15.2814 29.8538 14.5492 29.1053C13.8169 28.3568 13.8169 27.1432 14.5492 26.3947L18.8484 22L14.5492 17.6053C13.8169 16.8568 13.8169 15.6432 14.5492 14.8947C15.2814 14.1462 16.4686 14.1462 17.2008 14.8947L21.5 19.2894L25.7992 14.8947C26.5314 14.1462 27.7186 14.1462 28.4508 14.8947Z" fill="#022C66"/>
<path fill-rule="evenodd" clip-rule="evenodd" d="M0.875 22C0.875 10.356 10.1091 0.916672 21.5 0.916672C32.8909 0.916672 42.125 10.356 42.125 22C42.125 33.644 32.8909 43.0833 21.5 43.0833C10.1091 43.0833 0.875 33.644 0.875 22ZM21.5 4.75C12.1802 4.75 4.625 12.4731 4.625 22C4.625 31.5269 12.1802 39.25 21.5 39.25C30.8198 39.25 38.375 31.5269 38.375 22C38.375 12.4731 30.8198 4.75 21.5 4.75Z" fill="#022C66"/>
</svg>
